<?xml version="1.0" standalone="no"?>
<!DOCTYPE svg PUBLIC "-//W3C//DTD SVG 20010904//EN"
 "http://www.w3.org/TR/2001/REC-SVG-20010904/DTD/svg10.dtd">
<svg version="1.0" xmlns="http://www.w3.org/2000/svg"
 width="900.000000pt" height="440.000000pt" viewBox="0 0 900.000000 440.000000"
 preserveAspectRatio="xMidYMid meet">
<metadata>
Created by potrace 1.16, written by Peter Selinger 2001-2019
</metadata>
<g transform="translate(0.000000,440.000000) scale(0.100000,-0.100000)"
fill="#000000" stroke="none">
<path d="M3300 4332 c-84 -95 -231 -302 -265 -375 -61 -125 -56 -236 17 -390
l42 -89 -74 -66 c-332 -302 -694 -506 -988 -557 -107 -19 -341 -19 -446 0
-111 19 -258 72 -301 107 -53 44 -80 109 -136 320 -107 409 -137 501 -169 530
-43 39 -179 81 -267 82 -70 1 -74 0 -107 -34 -50 -51 -155 -222 -241 -395
-204 -411 -322 -839 -353 -1280 -5 -66 -8 -487 -8 -935 1 -806 1 -815 22 -860
33 -72 107 -145 182 -182 l67 -33 3370 1 3370 1 270 37 c734 99 1169 199 1429
326 114 55 181 104 238 171 l39 46 -16 334 c-17 350 -29 446 -67 507 -65 106
-205 249 -316 322 -145 97 -243 114 -953 170 l-247 19 -242 121 -243 121 45
47 c25 26 51 57 57 69 27 54 -1 132 -60 167 -56 33 -103 18 -227 -72 -75 -55
-86 -60 -114 -51 -35 9 -188 78 -202 91 -5 4 9 27 32 52 68 74 67 144 -5 206
-58 51 -119 40 -228 -44 -33 -26 -70 -49 -82 -52 -15 -4 -58 12 -132 46 l-109
52 33 44 c18 24 36 57 40 74 14 64 -37 140 -104 155 -39 8 -97 -18 -181 -82
l-65 -50 -110 54 c-60 31 -111 56 -113 58 -1 1 9 26 23 56 29 62 31 86 11 134
-20 46 -65 69 -128 63 -37 -4 -65 -16 -116 -52 -37 -25 -74 -46 -83 -46 -21 0
-191 84 -206 102 -10 11 -9 24 2 63 26 86 -14 166 -90 181 -39 7 -102 -18
-171 -68 l-45 -32 -115 57 -114 57 25 50 c16 32 25 66 25 96 0 41 -5 51 -39
85 -32 32 -46 39 -77 39 -67 0 -120 30 -554 310 -197 127 -299 180 -347 180
-26 0 -41 -10 -83 -58z m274 -347 c65 -41 133 -87 153 -102 l35 -27 -92 -23
c-51 -13 -147 -46 -213 -73 -127 -52 -171 -61 -181 -34 -10 27 -7 83 8 119 24
56 146 215 166 215 4 0 60 -34 124 -75z m-2766 -502 c17 -60 58 -209 92 -333
78 -283 92 -321 136 -360 82 -72 335 -169 550 -210 60 -12 115 -23 123 -26 16
-5 -87 -83 -206 -155 -153 -93 -236 -112 -382 -88 -121 19 -215 76 -401 243
-142 127 -176 146 -302 171 -37 7 -37 36 1 146 85 249 167 439 257 596 60 105
82 135 94 128 4 -2 21 -53 38 -112z m2890 -1 c-76 -77 -98 -105 -103 -135 -15
-80 46 -157 125 -157 41 0 84 27 252 160 94 75 106 81 138 76 40 -6 220 -91
220 -103 -1 -4 -35 -35 -77 -68 -41 -33 -86 -76 -99 -95 -28 -41 -32 -99 -8
-139 19 -33 73 -71 100 -71 36 1 107 40 213 119 174 129 144 122 271 60 61
-29 110 -54 110 -57 0 -2 -35 -37 -78 -77 -128 -121 -138 -162 -58 -242 73
-73 107 -63 296 84 l124 96 113 -57 c62 -32 113 -61 113 -65 0 -5 -21 -25 -47
-45 -56 -43 -111 -109 -119 -143 -10 -37 3 -69 45 -113 67 -71 118 -56 315 93
49 37 93 67 98 67 4 0 58 -25 119 -56 l111 -55 -49 -42 c-96 -84 -103 -94
-103 -154 0 -65 9 -85 54 -112 69 -43 118 -26 274 91 l103 78 110 -55 c60 -30
109 -59 109 -63 0 -4 -25 -32 -55 -62 -75 -74 -86 -123 -45 -199 6 -13 9 -25
6 -28 -8 -8 -705 263 -1126 439 -437 183 -614 259 -1210 524 -565 251 -654
292 -658 302 -5 17 165 168 228 201 70 38 234 100 264 101 14 0 -9 -29 -76
-98z m-221 -501 c410 -185 563 -260 563 -273 0 -5 -52 -88 -115 -184 -134
-204 -902 -1333 -919 -1351 -8 -9 -61 -10 -226 -3 -118 5 -350 14 -515 20
-628 23 -1003 71 -1647 211 -263 57 -293 67 -310 106 -9 20 -12 141 -13 438
l0 410 28 57 c27 56 86 118 111 118 20 0 94 -53 171 -121 273 -243 512 -336
733 -284 80 19 149 48 230 97 80 49 265 182 359 259 85 71 144 101 238 124
257 64 600 240 830 426 100 80 126 99 141 99 7 0 160 -67 341 -149z m1158
-512 c105 -44 194 -84 198 -88 12 -12 -6 -45 -151 -276 -144 -231 -619 -963
-638 -984 -11 -12 -45 -12 -231 -2 -291 16 -333 21 -333 37 0 21 579 882 862
1282 44 61 85 112 91 112 7 0 98 -36 202 -81z m753 -315 c135 -52 270 -109
280 -118 10 -10 -121 -230 -406 -686 l-179 -285 -79 -3 c-91 -4 -426 15 -466
26 l-27 7 81 130 c509 817 618 985 639 985 6 0 77 -25 157 -56z m1593 -150
c113 -58 221 -118 241 -134 28 -23 88 -122 88 -145 0 -20 -210 19 -404 76
-180 53 -475 151 -493 164 -15 11 -13 15 23 33 21 11 81 52 132 91 l92 70 58
-25 c31 -14 149 -73 263 -130z m-661 -205 c453 -155 778 -243 1001 -270 l97
-12 45 -151 c64 -213 62 -203 29 -210 -78 -16 -503 -72 -872 -115 -172 -21
-425 -32 -726 -32 -304 -1 -364 3 -364 24 0 34 443 769 503 835 11 12 21 22
21 22 1 0 121 -41 266 -91z m1480 1 c519 -39 578 -52 710 -164 58 -49 140
-140 140 -156 0 -10 -100 -62 -204 -105 -150 -62 -708 -198 -737 -179 -5 3 -9
13 -9 22 0 31 -121 375 -166 471 -50 108 -54 131 -21 131 12 0 141 -9 287 -20z
m-7404 -541 c209 -50 694 -141 917 -174 386 -55 599 -72 1167 -90 388 -13
2117 -103 2910 -152 371 -23 877 -23 1090 0 534 57 807 92 1125 143 135 21
129 23 121 -36 -7 -50 -90 -398 -97 -404 -6 -5 -471 -65 -614 -78 -101 -10
-858 -13 -3419 -13 l-3289 0 -20 39 c-18 34 -21 63 -25 285 -3 136 -1 304 3
374 8 147 -3 138 131 106z m8289 -6 c11 -31 28 -319 21 -367 -6 -36 -14 -51
-39 -70 -63 -46 -258 -109 -542 -175 -227 -53 -273 -59 -281 -36 -7 18 91 412
107 431 5 7 20 14 32 17 201 44 572 160 632 197 39 24 61 24 70 3z"/>
</g>
</svg>
