<?xml version="1.0" standalone="no"?>
<!DOCTYPE svg PUBLIC "-//W3C//DTD SVG 20010904//EN"
 "http://www.w3.org/TR/2001/REC-SVG-20010904/DTD/svg10.dtd">
<svg version="1.0" xmlns="http://www.w3.org/2000/svg"
 width="980.000000pt" height="608.000000pt" viewBox="0 0 980.000000 608.000000"
 preserveAspectRatio="xMidYMid meet">
<metadata>
Created by potrace 1.16, written by Peter Selinger 2001-2019
</metadata>
<g transform="translate(0.000000,608.000000) scale(0.100000,-0.100000)"
fill="#000000" stroke="none">
<path d="M3655 6063 c-238 -31 -430 -94 -845 -279 -594 -263 -757 -307 -1569
-419 -266 -37 -388 -63 -454 -97 -95 -48 -178 -169 -237 -347 -45 -134 -67
-245 -90 -453 -35 -313 -133 -868 -164 -928 -7 -14 -26 -46 -41 -73 -39 -69
-52 -130 -70 -327 -18 -200 -26 -256 -60 -430 -61 -311 -68 -402 -69 -935 -1
-424 -2 -445 -26 -565 -21 -107 -24 -154 -24 -320 0 -209 12 -302 60 -467 33
-116 54 -147 117 -177 137 -67 613 -146 1142 -191 425 -35 588 -38 3387 -42
l2776 -5 199 32 c696 112 1195 270 1596 508 235 140 461 363 499 495 6 24 12
106 12 187 1 164 -19 252 -73 327 -46 64 -69 115 -86 194 -21 96 -91 239 -152
312 -90 108 -194 178 -338 226 -143 47 -221 54 -570 46 -459 -11 -792 26
-1205 131 -289 74 -286 72 -1033 535 l-499 309 -122 0 -121 0 -362 232 -362
232 -74 130 c-121 212 -119 206 -128 341 -12 186 -38 287 -102 409 -36 67 -41
88 -72 319 -37 279 -140 561 -283 781 -67 104 -212 245 -291 284 -58 29 -72
32 -150 31 -47 -1 -99 -4 -116 -6z m157 -325 c55 -31 159 -163 217 -278 102
-199 151 -396 175 -702 8 -103 20 -197 27 -210 6 -13 29 -41 50 -63 45 -47 65
-92 75 -163 l7 -52 -199 -206 c-256 -264 -334 -353 -334 -381 0 -29 53 -89 86
-97 44 -11 107 36 296 222 98 96 180 173 182 171 2 -2 46 -76 96 -164 51 -88
99 -169 106 -181 13 -19 8 -27 -69 -109 l-82 -88 -285 11 c-230 8 -293 13
-328 27 -75 31 -77 37 -80 385 l-3 306 205 104 204 105 7 103 c11 161 -1 213
-59 244 -13 7 -45 5 -108 -7 -102 -20 -133 -13 -144 31 -10 38 15 55 133 95
57 18 107 42 121 56 24 24 25 28 19 121 -12 181 -67 324 -164 421 -121 120
-246 146 -483 97 -402 -82 -1125 -358 -2185 -836 -440 -199 -517 -232 -522
-226 -2 2 5 57 17 123 36 205 94 366 143 397 23 15 140 35 467 81 716 101
1013 181 1475 400 302 143 448 199 666 255 142 36 216 38 271 8z m-79 -389
c47 -13 106 -70 136 -132 27 -56 52 -144 45 -161 -3 -7 -40 -29 -84 -50 -124
-58 -180 -135 -180 -248 0 -59 22 -120 60 -168 30 -38 118 -90 152 -90 31 0
20 -19 -29 -51 -27 -17 -306 -158 -621 -314 -315 -157 -616 -310 -669 -341
-71 -42 -123 -83 -193 -153 -112 -112 -157 -175 -234 -330 l-58 -114 -166 6
c-269 9 -569 72 -956 201 -257 86 -306 108 -306 140 0 51 109 607 130 662 11
27 55 51 365 192 774 353 1663 718 2105 865 115 38 174 53 345 90 39 9 121 7
158 -4z m-194 -1477 l1 -154 -213 -103 c-394 -192 -851 -370 -967 -377 -40 -3
-45 -1 -42 17 5 31 91 153 159 225 82 88 198 156 668 391 334 167 380 188 386
172 4 -10 8 -87 8 -171z m38 -420 c35 -62 108 -136 163 -166 59 -32 115 -38
500 -55 181 -8 224 -13 272 -31 75 -28 183 -99 302 -199 207 -175 452 -345
656 -457 182 -99 190 -104 208 -132 15 -23 17 -55 17 -287 -1 -422 -43 -641
-180 -949 l-48 -106 -101 0 c-450 0 -2421 111 -2614 146 -44 8 -77 54 -149
204 -195 404 -344 703 -374 750 -20 30 -60 81 -89 113 -29 32 -50 60 -48 63 3
2 205 -67 449 -154 797 -286 1067 -366 1409 -419 148 -22 516 -25 600 -4 141
35 250 113 298 212 29 60 37 151 23 267 -22 179 -78 279 -243 437 -99 95 -205
175 -338 255 -85 51 -167 87 -176 77 -3 -3 10 -52 30 -109 62 -181 73 -356 27
-445 -23 -46 -89 -105 -142 -127 -56 -23 -204 -39 -297 -32 -106 9 -557 136
-2447 690 -881 258 -790 228 -786 256 1 14 8 37 15 51 l11 27 193 -69 c702
-252 1189 -319 1647 -228 288 57 652 193 1015 378 85 44 160 80 165 80 6 1 20
-16 32 -37z m1380 -98 c92 -58 172 -109 177 -114 10 -10 -29 -60 -86 -108
l-38 -34 -63 59 c-35 32 -111 92 -170 133 l-107 75 51 48 c28 26 54 47 59 47
5 0 85 -48 177 -106z m428 -279 c24 -23 25 -30 25 -140 0 -63 -2 -115 -5 -115
-3 0 -54 32 -112 71 l-106 72 70 68 c39 38 78 69 87 69 9 0 28 -11 41 -25z
m404 -104 c34 -16 93 -51 132 -76 l72 -47 -113 -113 -113 -114 -69 35 -68 34
0 162 0 161 49 -6 c28 -3 77 -19 110 -36z m-4950 -306 c726 -292 1020 -419
1092 -471 91 -66 162 -186 359 -604 113 -238 152 -331 145 -338 -20 -20 -1913
204 -2021 239 -23 7 -34 18 -38 37 -3 15 -8 135 -12 267 -8 301 5 498 50 769
39 229 43 246 57 246 5 0 171 -65 368 -145z m5487 -22 l144 -88 -78 -77 c-42
-43 -84 -78 -93 -78 -14 0 -109 37 -296 115 l-37 16 99 99 c55 55 104 100 109
100 5 0 73 -39 152 -87z m444 -274 c103 -62 163 -92 215 -109 64 -20 75 -35
75 -101 0 -32 -5 -61 -11 -64 -11 -7 -519 194 -519 206 0 3 24 32 54 63 36 37
62 56 78 56 12 0 61 -23 108 -51z m-645 -129 c144 -58 778 -321 783 -326 2 -1
-15 -26 -39 -56 -54 -67 -148 -262 -194 -400 -20 -59 -48 -167 -64 -240 -25
-121 -30 -133 -52 -139 -13 -4 -181 -7 -374 -7 -319 0 -456 5 -469 19 -3 3 12
52 34 110 99 257 137 464 150 819 5 140 12 265 15 277 6 26 -1 28 210 -57z
m1360 -119 c327 -72 483 -89 918 -98 174 -3 317 -9 317 -13 0 -11 -149 -50
-274 -71 -60 -11 -195 -26 -300 -34 -232 -19 -340 -36 -437 -71 -98 -35 -114
-44 -255 -135 -124 -81 -153 -91 -192 -63 -20 14 -22 23 -22 117 0 99 14 294
26 370 4 25 11 37 22 37 9 0 98 -18 197 -39z m1674 -176 c94 -48 202 -253 176
-334 -15 -48 -288 -150 -643 -240 -521 -132 -1046 -212 -1815 -277 -83 -7 -85
-3 -62 103 46 204 205 576 205 478 0 -8 10 -40 21 -72 46 -124 159 -192 300
-180 78 7 117 25 233 107 151 108 242 136 551 165 458 43 659 92 899 219 48
25 92 46 97 46 6 0 23 -7 38 -15z m302 -566 c49 -49 9 -82 -216 -170 -539
-212 -1523 -361 -2703 -410 -318 -13 -1633 -6 -2037 11 -968 41 -2505 181
-3695 336 -439 57 -475 66 -450 115 10 18 18 21 53 15 1023 -146 2441 -289
3487 -351 2201 -129 3583 -64 4757 225 249 62 533 150 683 214 47 19 88 36 93
36 4 0 16 -9 28 -21z m-99 -390 c-121 -111 -349 -251 -552 -337 -399 -171
-977 -301 -1430 -323 -320 -16 -4616 -16 -5170 -1 -871 25 -1268 57 -1672 136
-148 29 -165 36 -184 81 -20 48 -43 200 -50 337 -6 98 -5 118 7 118 8 0 174
-20 369 -45 1658 -211 2633 -298 3985 -357 384 -17 1711 -17 2025 0 789 42
1356 105 1861 206 241 49 377 85 634 170 121 40 222 71 225 68 3 -2 -19 -26
-48 -53z"/>
<path d="M2704 4564 c-76 -48 -146 -89 -155 -91 -18 -5 -29 32 -29 99 0 52
-17 56 -93 23 -51 -24 -82 -29 -187 -36 -204 -13 -303 -49 -400 -148 -32 -32
-74 -91 -99 -138 -48 -89 -72 -113 -168 -162 -35 -17 -63 -33 -63 -35 0 -3 28
-21 63 -42 95 -57 94 -54 50 -81 -141 -85 -302 -189 -303 -195 0 -17 369 3
507 27 214 37 401 104 511 181 132 95 285 266 400 450 46 74 122 216 122 229
0 13 -25 0 -156 -81z"/>
</g>
</svg>
